Coordinates
version=1
nRows=9
nColumns=63
inDegrees=yes

Units are S.I. units (second, meters, Newtons, ...)
If the header above contains a line with 'inDegrees', this indicates whether rotational values are in degrees (yes) or radians (no).

endheader
time	pelvis_tilt	pelvis_list	pelvis_rotation	pelvis_tx	pelvis_ty	pelvis_tz	hip_flexion_r	hip_adduction_r	hip_rotation_r	knee_angle_r	knee_angle_r_beta	ankle_angle_r	subtalar_angle_r	mtp_angle_r	hip_flexion_l	hip_adduction_l	hip_rotation_l	knee_angle_l	knee_angle_l_beta	ankle_angle_l	subtalar_angle_l	mtp_angle_l	L5_S1_Flex_Ext	L5_S1_Lat_Bending	L5_S1_axial_rotation	L4_L5_Flex_Ext	L4_L5_Lat_Bending	L4_L5_axial_rotation	L3_L4_Flex_Ext	L3_L4_Lat_Bending	L3_L4_axial_rotation	L2_L3_Flex_Ext	L2_L3_Lat_Bending	L2_L3_axial_rotation	L1_L2_Flex_Ext	L1_L2_Lat_Bending	L1_L2_axial_rotation	L1_T12_Flex_Ext	L1_T12_Lat_Bending	L1_T12_axial_rotation	Abs_r3	Abs_r2	Abs_r1	Abs_t1	Abs_t2	neck_flexion	neck_bending	neck_rotation	arm_flex_r	arm_add_r	arm_rot_r	elbow_flex_r	pro_sup_r	wrist_flex_r	wrist_dev_r	arm_flex_l	arm_add_l	arm_rot_l	elbow_flex_l	pro_sup_l	wrist_flex_l	wrist_dev_l
3.716667	3.050243	-9.263180	88.923432	0.129327	0.950116	0.289615	-2.528150	-0.123713	-14.183266	1.659077	0.028956	25.153998	15.178300	0.000000	0.952105	1.850909	6.412655	8.313244	0.145093	16.532683	-13.862334	0.000000	-0.043480	-0.097056	0.307974	-0.080747	-0.129085	0.327222	-0.071433	-0.235982	0.327222	-0.049693	-0.235982	0.269477	-0.040376	-0.197917	0.250229	-0.024844	-0.150340	0.230981	-0.310573	-1.097918	1.712859	0.000000	0.000000	25.039788	3.910086	-1.782362	2.624241	-12.020968	42.561815	27.762342	85.879126	-10.464677	3.302543	8.234656	-13.724655	66.470470	23.687677	68.308845	-12.350693	-8.499454
3.733333	2.978197	-9.276285	88.911671	0.129622	0.950281	0.289705	-2.510119	-0.185438	-14.241216	1.688987	0.029478	25.131339	15.200881	0.000000	1.077682	1.894805	6.125701	8.459049	0.147638	16.471884	-13.537425	0.000000	-0.042637	-0.103480	0.291068	-0.079181	-0.137628	0.309260	-0.070048	-0.251601	0.309260	-0.048729	-0.251601	0.254684	-0.039592	-0.211016	0.236493	-0.024363	-0.160290	0.218301	-0.304550	-1.170584	1.618832	0.000000	0.000000	25.217897	3.800464	-1.490986	2.565110	-11.891589	41.720650	27.749683	85.301489	-10.107154	3.266068	8.521770	-13.722292	66.806030	23.438703	69.509663	-13.671189	-8.839727
3.750000	2.912835	-9.262621	88.863543	0.129948	0.950447	0.289795	-2.504103	-0.249196	-14.326459	1.746727	0.030486	25.143353	15.247348	0.000000	1.143632	1.926671	5.862217	8.572063	0.149611	16.422235	-13.210395	0.000000	-0.042173	-0.109330	0.291275	-0.078320	-0.145409	0.309480	-0.069286	-0.265825	0.309480	-0.048200	-0.265825	0.254866	-0.039162	-0.222946	0.236661	-0.024098	-0.169352	0.218456	-0.301238	-1.236762	1.619985	0.000000	0.000000	25.347770	3.623116	-1.267126	2.502306	-11.801620	40.986756	27.778953	84.629197	-9.841974	3.270593	8.932629	-13.706349	67.530736	23.185008	70.661884	-14.938354	-9.090713
3.766667	2.859900	-9.216824	88.829392	0.130233	0.950614	0.289856	-2.531962	-0.303863	-14.499788	1.815572	0.031688	25.192687	15.360897	0.000000	1.143941	1.946808	5.793017	8.650271	0.150976	16.346059	-13.048006	0.000000	-0.042462	-0.113948	0.292582	-0.078855	-0.151551	0.310868	-0.069760	-0.277053	0.310868	-0.048529	-0.277053	0.256009	-0.039430	-0.232363	0.237723	-0.024263	-0.176506	0.219436	-0.303299	-1.289003	1.627252	0.000000	0.000000	25.414361	3.404918	-1.086652	2.458370	-11.732489	40.356216	27.828036	83.944964	-9.649557	3.331750	9.408727	-13.693895	68.416506	22.972708	71.810007	-16.053275	-9.170858
3.783333	2.812466	-9.137905	88.770577	0.130505	0.950784	0.289888	-2.590824	-0.359995	-14.692917	1.893311	0.033045	25.240481	15.505864	0.000000	1.072502	1.966027	5.823480	8.686804	0.151613	16.285505	-13.010369	0.000000	-0.044085	-0.118076	0.299335	-0.081870	-0.157041	0.318043	-0.072427	-0.287089	0.318043	-0.050385	-0.287089	0.261918	-0.040937	-0.240780	0.243210	-0.025190	-0.182899	0.224501	-0.314895	-1.335697	1.664811	0.000000	0.000000	25.408117	3.169923	-0.944554	2.429719	-11.685651	39.834277	27.905323	83.252906	-9.525747	3.427546	9.931143	-13.687940	69.428965	22.800794	73.001583	-17.024815	-9.118372
3.800000	2.767574	-9.031740	88.685010	0.130778	0.950944	0.289860	-2.682785	-0.418450	-14.876114	1.967879	0.034346	25.288930	15.675874	0.000000	0.934380	1.987855	5.969142	8.680200	0.151498	16.234391	-13.110975	0.000000	-0.046386	-0.122189	0.305071	-0.086144	-0.162511	0.324138	-0.076208	-0.297090	0.324138	-0.053015	-0.297090	0.266937	-0.043074	-0.249168	0.247870	-0.026505	-0.189271	0.228803	-0.331333	-1.382226	1.696712	0.000000	0.000000	25.336705	2.950778	-0.823162	2.437899	-11.640044	39.455323	27.979909	82.604792	-9.453987	3.561079	10.383955	-13.692893	70.059336	22.717962	74.721009	-17.819685	-8.817802
3.816667	2.725201	-8.901769	88.567453	0.131050	0.951095	0.289764	-2.808544	-0.478121	-15.001949	2.028763	0.035409	25.325591	15.830173	0.000000	0.737602	2.011196	6.153028	8.632686	0.150669	16.224029	-13.257962	0.000000	-0.049355	-0.126238	0.313373	-0.091657	-0.167896	0.332959	-0.081085	-0.306934	0.332959	-0.056408	-0.306934	0.274201	-0.045831	-0.257424	0.254615	-0.028201	-0.195542	0.235030	-0.352537	-1.428027	1.742885	0.000000	0.000000	25.213102	2.750885	-0.741776	2.456189	-11.592364	39.137623	28.048370	82.016208	-9.414502	3.709316	10.846643	-13.699745	70.811357	22.657671	76.454605	-18.504698	-8.417967
3.833333	2.683722	-8.755738	88.430970	0.131313	0.951227	0.289583	-2.963599	-0.538464	-15.060594	2.071349	0.036152	25.344259	15.944850	0.000000	0.493409	2.041886	6.442237	8.547016	0.149174	16.221496	-13.546411	0.000000	-0.052639	-0.130687	0.321937	-0.097756	-0.173813	0.342058	-0.086481	-0.317752	0.342058	-0.060161	-0.317752	0.281695	-0.048881	-0.266496	0.261574	-0.030078	-0.202434	0.241453	-0.375997	-1.478355	1.790517	0.000000	0.000000	25.051907	2.590825	-0.703468	2.468389	-11.535674	38.817687	28.103953	81.521640	-9.368093	3.857345	11.275010	-13.710731	71.491296	22.635065	78.317291	-19.046192	-7.889384
3.850000	2.645753	-8.598159	88.279339	0.131573	0.951337	0.289316	-3.144742	-0.595013	-15.030864	2.091496	0.036503	25.342820	15.991481	0.000000	0.217955	2.074660	6.768392	8.441274	0.147328	16.251612	-13.888731	0.000000	-0.056463	-0.135428	0.332948	-0.104857	-0.180119	0.353758	-0.092763	-0.329280	0.353758	-0.064531	-0.329280	0.291330	-0.052431	-0.276165	0.270521	-0.032263	-0.209778	0.249711	-0.403308	-1.531989	1.851759	0.000000	0.000000	24.866772	2.479031	-0.719958	2.458841	-11.475338	38.488030	28.148411	81.138029	-9.350873	3.970001	11.660555	-13.731645	72.065781	22.658221	80.203226	-19.393600	-7.246951
